<?xml version="1.0" encoding="utf-8"?>
<!-- Generator: Adobe Illustrator 19.2.1, SVG Export Plug-In . SVG Version: 6.00 Build 0)  -->
<svg version="1.1" id="layer" xmlns="http://www.w3.org/2000/svg" xmlns:xlink="http://www.w3.org/1999/xlink" x="0px" y="0px"
	 viewBox="0 0 652 652" style="enable-background:new 0 0 652 652;" xml:space="preserve">
<style type="text/css">
	.st0{fill:#FFD300;}
</style>
<g>
	<g>
		<g>
			<path d="M446.3,312.1c-0.1-2.1-0.6-3.8-1.3-5.3c-0.8-1.5-1.8-2.8-3.2-3.8c-1.3-1-2.9-1.8-4.7-2.3c-1.9-0.5-3.9-0.8-6.1-0.8
				c-1.3,0-2.8,0.2-4.3,0.5c-1.5,0.3-2.9,0.9-4.3,1.6c-1.3,0.8-2.4,1.8-3.2,3.2c-0.9,1.3-1.3,2.9-1.3,5c0,1.9,0.5,3.6,1.4,4.7
				c0.9,1.3,2.2,2.2,3.7,2.9c1.5,0.8,3.2,1.3,5.2,1.8c2,0.5,4,0.9,6,1.3c2.1,0.4,4.1,0.9,6,1.4c1.9,0.6,3.7,1.3,5.2,2.3
				c1.5,0.9,2.8,2.2,3.7,3.8c0.9,1.5,1.4,3.6,1.4,5.8c0,2.4-0.6,4.6-1.6,6.2c-1,1.7-2.4,3.1-4.1,4.2c-1.6,1-3.4,1.8-5.4,2.3
				c-2.1,0.5-3.9,0.6-5.7,0.6c-2.8,0-5.4-0.3-7.9-0.9c-2.4-0.6-4.6-1.6-6.5-2.9c-1.8-1.3-3.2-3.2-4.3-5.2c-1-2.2-1.5-4.7-1.5-7.9
				h2.9c-0.1,2.7,0.3,4.8,1.1,6.6c0.9,1.8,2.1,3.3,3.7,4.5c1.6,1.1,3.4,2,5.6,2.4c2.2,0.5,4.3,0.8,6.7,0.8c1.4,0,2.9-0.2,4.6-0.6
				c1.6-0.4,3.2-0.9,4.5-1.8c1.3-0.9,2.4-2,3.4-3.3c0.9-1.4,1.3-3.2,1.3-5.2c0-2-0.5-3.6-1.4-5c-0.9-1.3-2.2-2.3-3.7-3.1
				c-1.5-0.8-3.3-1.4-5.2-1.9c-1.9-0.5-4-0.9-6-1.3s-4-0.9-6-1.4c-2-0.6-3.7-1.3-5.2-2.2c-1.5-0.9-2.8-2.1-3.7-3.6
				c-0.9-1.5-1.4-3.3-1.4-5.6s0.5-4.3,1.4-5.9c0.9-1.6,2.2-2.9,3.7-4c1.5-1,3.2-1.7,5.2-2.2c1.9-0.5,3.8-0.6,5.7-0.6
				c2.4,0,4.8,0.3,7,0.9c2.2,0.6,4.1,1.4,5.7,2.7c1.6,1.1,2.9,2.8,3.9,4.6c0.9,1.9,1.5,4.1,1.7,6.7h-2.9L446.3,312.1L446.3,312.1z"
				/>
			<path d="M479.7,339.5L479.7,339.5c-0.5,1-1,2-1.8,2.9c-0.8,0.9-1.7,1.7-2.8,2.4c-1.1,0.8-2.4,1.3-3.7,1.7
				c-1.4,0.4-2.9,0.6-4.6,0.6c-3.7,0-6.5-0.8-8.5-2.4c-2-1.6-3.1-4-3.1-7.3c0-2,0.4-3.6,1.3-5c0.8-1.3,1.8-2.3,3.1-3.1
				c1.3-0.8,2.5-1.3,4.1-1.6c1.5-0.3,2.9-0.6,4.3-0.6l4-0.4c1.8-0.1,3.2-0.4,4.3-0.6c1-0.3,1.8-0.6,2.4-1.3c0.6-0.6,0.9-1.1,1-2
				c0.1-0.8,0.2-1.8,0.2-3.1c0-0.9-0.2-1.8-0.6-2.5c-0.4-0.7-0.9-1.5-1.7-2.2c-0.8-0.6-1.7-1.1-2.9-1.5c-1.3-0.4-2.7-0.6-4.5-0.6
				c-3.1,0-5.6,0.8-7.5,2.3c-1.9,1.5-2.9,3.8-3.2,6.9h-2.5c0.2-3.8,1.4-6.6,3.6-8.5c2.3-1.9,5.4-2.8,9.6-2.8c4.2,0,7.2,0.9,9.2,2.4
				c1.9,1.6,2.8,3.8,2.8,6.4v20c0,0.5,0,0.9,0,1.5c0,0.5,0.1,0.9,0.2,1.3c0.1,0.4,0.4,0.8,0.6,0.9c0.3,0.3,0.8,0.4,1.3,0.4
				c0.5,0,1-0.1,1.9-0.2v2.2c-0.6,0.2-1.3,0.3-2.1,0.3c-1,0-1.8-0.1-2.4-0.4c-0.6-0.3-1-0.6-1.3-1c-0.3-0.5-0.6-0.9-0.6-1.6
				c-0.1-0.6-0.2-1.3-0.2-2v-1.7h0.2V339.5z M479.7,326.7c-0.6,0.8-1.6,1.3-2.8,1.5c-1.3,0.3-2.7,0.5-4.3,0.6l-4.3,0.4
				c-1.3,0.1-2.4,0.3-3.7,0.6c-1.3,0.3-2.4,0.6-3.4,1.3c-1,0.6-1.8,1.3-2.4,2.4s-0.9,2.3-0.9,3.9c0,2.5,0.8,4.5,2.4,5.7
				c1.6,1.3,3.8,1.8,6.6,1.8c2.9,0,5.2-0.6,6.9-1.6s2.9-2.3,3.9-3.6c0.9-1.3,1.4-2.7,1.7-4c0.3-1.3,0.4-2.1,0.4-2.5L479.7,326.7
				L479.7,326.7z"/>
			<path d="M490.4,311.9h2.5v7h0.1c0.3-1,0.8-2.1,1.4-3.1c0.6-1,1.5-1.8,2.4-2.4c0.9-0.8,2-1.3,3.2-1.7c1.1-0.4,2.4-0.6,3.7-0.6
				c1.6,0,3.1,0.2,4.3,0.6c1.3,0.4,2.3,0.9,3.1,1.7c0.9,0.6,1.5,1.5,2,2.4c0.5,0.9,0.9,1.7,1,2.7h0.1c1-2.4,2.4-4.3,4.1-5.4
				c1.7-1.3,4-1.8,6.9-1.8c1.5,0,3.1,0.2,4.3,0.6c1.3,0.5,2.4,1.1,3.4,2.2c0.9,0.9,1.7,2.2,2.3,3.6c0.6,1.5,0.8,3.2,0.8,5.2v23.5
				h-2.5v-23.8c0-2.2-0.4-3.9-1-5.1c-0.6-1.3-1.4-2.2-2.4-2.8c-0.9-0.6-1.8-1-2.8-1.3c-0.9-0.2-1.6-0.2-2.1-0.2
				c-1.5,0-3.1,0.3-4.3,0.8c-1.3,0.6-2.4,1.3-3.4,2.4s-1.7,2.4-2.3,4c-0.6,1.6-0.8,3.4-0.8,5.4v20.4h-2.5v-23.6
				c0-2.2-0.3-3.9-0.9-5.1s-1.4-2.2-2.3-2.8c-0.9-0.6-1.8-1-2.7-1.3c-0.9-0.2-1.6-0.3-2.2-0.3c-1.3,0-2.4,0.3-3.8,0.8
				c-1.3,0.5-2.4,1.3-3.6,2.3c-1,1-1.9,2.4-2.7,4c-0.8,1.6-1,3.6-1,5.7v20.4h-2.5v-34.4H490.4z"/>
			<path d="M546.7,319.7h0.2c0.3-0.9,0.8-1.8,1.3-2.8c0.6-1,1.4-2,2.4-2.8s2.3-1.6,3.7-2.2c1.4-0.6,3.2-0.9,5.1-0.9
				c2.7,0,5,0.5,6.9,1.5c1.9,0.9,3.6,2.3,4.8,4c1.3,1.6,2.2,3.6,2.8,5.8c0.6,2.2,0.9,4.5,0.9,6.9c0,2.7-0.3,5.1-0.9,7.2
				c-0.6,2.2-1.6,4.1-2.8,5.7c-1.3,1.6-2.8,2.8-4.8,3.7c-1.9,0.9-4.3,1.3-6.9,1.3c-2.8,0-5.4-0.6-7.7-1.9c-2.3-1.3-3.9-3.3-5-6.1
				h-0.1v19.5h-2.4v-46.7h2.4V319.7L546.7,319.7z M559.4,344.8c2.3,0,4.2-0.4,5.8-1.3s2.9-2,4-3.4s1.8-3.2,2.4-5.1
				c0.5-1.9,0.8-3.9,0.8-6.1c0-2-0.3-3.9-0.8-5.8c-0.5-1.9-1.3-3.6-2.3-5.1c-1-1.5-2.4-2.7-4-3.6c-1.6-0.9-3.6-1.3-6-1.3
				c-2.3,0-4.3,0.5-5.9,1.3c-1.6,0.9-2.9,2.1-3.9,3.6c-1,1.5-1.7,3.2-2.2,5.1c-0.5,1.9-0.6,3.9-0.6,5.9s0.2,4,0.6,5.9
				c0.4,1.9,1,3.6,2.1,5.1c0.9,1.4,2.3,2.7,3.9,3.6C555,344.4,556.9,344.8,559.4,344.8z"/>
			<path d="M584,298.4v47.8h-2.5v-47.8H584z"/>
			<path d="M593,329.4v0.4c0,2,0.3,3.9,0.8,5.8c0.6,1.8,1.3,3.4,2.4,4.8c1,1.4,2.4,2.4,4,3.3c1.6,0.8,3.4,1.3,5.5,1.3
				c3.4,0,6.2-0.9,8.1-2.8s3.4-4.3,4.2-7.5h2.5c-0.8,4-2.4,7.1-5,9.2c-2.5,2.2-5.9,3.2-9.9,3.2c-2.5,0-4.7-0.5-6.6-1.3
				c-1.9-0.9-3.6-2.2-4.7-3.7c-1.3-1.6-2.2-3.4-2.8-5.6c-0.6-2.2-0.9-4.5-0.9-7c0-2.4,0.3-4.7,0.9-6.9c0.6-2.2,1.6-4.2,2.9-5.8
				c1.3-1.7,2.9-3.1,4.8-4c1.9-1,4.3-1.5,6.9-1.5c2.4,0,4.6,0.5,6.4,1.3c1.9,0.9,3.4,2.1,4.7,3.6c1.3,1.5,2.2,3.3,2.8,5.3
				c0.6,2,0.9,4.2,0.9,6.6c0,0.2,0,0.5,0,0.8c0,0.3,0,0.6,0,0.6L593,329.4L593,329.4z M618.4,327.1c-0.1-1.9-0.4-3.6-0.9-5.3
				c-0.6-1.7-1.3-3.2-2.4-4.5c-1-1.3-2.4-2.3-3.8-3.1c-1.5-0.8-3.2-1.1-5.1-1.1c-2.1,0-3.9,0.4-5.4,1.1c-1.6,0.8-2.8,1.8-4,3.1
				c-1,1.3-1.9,2.8-2.4,4.5c-0.6,1.7-0.9,3.4-1,5.2L618.4,327.1L618.4,327.1L618.4,327.1z"/>
		</g>
		<path d="M373.8,309.9c-6.9,0-7.9,6.7-7.9,11.8c0,5.1,0.9,11.8,7.9,11.8c6.9,0,7.9-6.9,7.9-11.8S380.7,309.9,373.8,309.9
			 M341.2,309.2v16.7c0,4.5,1,6.4,5.6,6.4c0.9,0,1.7,0,2.5-0.1l0,0c-1.3-3.2-1.8-6.7-1.8-10.3c0-4.6,0.9-8.9,2.9-12.6L341.2,309.2z
			 M297.7,324.2c-2.2,1.1-4.7,1.7-7.2,2.3c-4.1,0.9-6.2,1.9-6.2,5.1c0,2.2,2.4,4.5,5.7,4.5c4.2,0,7.4-2.4,7.7-7.5L297.7,324.2
			L297.7,324.2z M214.4,316.4c0-4.5-3.3-8-8-8c-5.4,0-8.5,2.8-9.4,8H214.4z M351,308c4-6.7,11.4-11.5,22.7-11.5
			c18.1,0,26.1,11.8,26.1,25.1c0,13.3-8.1,25.2-26.1,25.2c-11.4,0-18.8-4.7-22.7-11.6v0.2v10.3c-3.7,0-7.9,0.6-11.8,0.6
			c-7.8,0-16.3-1.3-16.3-14.4v-22.6h-8l0,0c0.3,2,0.3,4.2,0.3,6.2V335c0,3.6,0.2,7.7,2.2,10.7h-18.6c-0.5-1.3-0.8-3.2-0.6-4.6H298
			c-3.9,4.5-9.5,5.7-15.4,5.7c-9.2,0-16.9-4.5-16.9-14.5c0-15.1,17.8-14.6,27.1-16.3c2.4-0.5,5.1-1.3,5.1-4.3c0-3.2-3.1-4.5-6-4.5
			c-5.6,0-6.7,2.8-6.9,5h-17l0,0v1.3c-1.8-0.6-3.6-1.3-7.2-1.3c-7.2,0-11.1,4.3-11.1,14.5v18.9h-18.3v-19.7l0,0h-34.6
			c0.5,5.4,3.6,9.3,9.3,9.3c2.9,0,6.2-1.1,7.7-3.4h17.1c-3.7,10.3-13.7,15.1-24.7,15.1c-12.2,0-22-5.8-25.6-16.2v0.2
			c-0.6,12.6-13,16-24.4,16c-11.3,0-23.7-4.6-23.9-16.9h17.4c0.1,1.6,0.9,3.1,2.2,4.3c0.9,0.9,2.7,1.4,5,1.4c2.4,0,6.2-0.9,6.2-3.7
			c0-2.8-1.6-3.6-10.1-5.1c-14-2.4-19.6-6.9-19.6-15.1c0-12.1,13-15.2,22.6-15.2c10.3,0,22.8,2.8,23.3,15.1h-16.7
			c-0.1-1.6-0.9-2.8-2.1-3.6c-1.1-0.9-2.5-1.4-4.1-1.4c-2.5,0-5.5,0.6-5.5,3.7c0,1.4,1.1,2,2.1,2.4c3.1,1.3,9.9,1.7,16,3.7
			c4.3,1.3,8.1,3.6,10.2,7.4v0.1c-0.1-0.8-0.1-1.4-0.1-2.2c0-14,10.2-25.3,25.3-25.3c16.3,0,24.6,7.8,26.7,21.8v-0.2v-20.5h17.6v7.7
			h0.2c2.9-5.7,6.9-8.8,13.5-8.8c1.8,0,3.6,0.3,5.3,0.8v14v0.4c0.9-12.8,13.5-14.9,24.6-14.9c17.1,0,21.4,5.3,22.4,11.8v0.1v-10.9
			h8.1v-14.5h18.3v14.6h9.8L351,308L351,308z"/>
	</g>
	<circle class="st0" cx="71.8" cy="321.7" r="50.9"/>
	<path d="M95.5,354.1l-20.7-20.7l-0.1-0.2v-18.9v-0.1v-25.6c0-0.6-0.5-0.9-0.9-0.9H48.3c-0.8,0-1,0.9-0.6,1.4l21,21l0.1,0.1v27.6
		l0,0v16.8c0,0.6,0.6,1.3,1.3,1.3h24.8C95.7,355.7,96.2,354.6,95.5,354.1z"/>
</g>
</svg>
